<!-- Generator: Adobe Illustrator 19.0.0, SVG Export Plug-In  -->
<svg version="1.1"
	 xmlns="http://www.w3.org/2000/svg" xmlns:xlink="http://www.w3.org/1999/xlink" xmlns:a="http://ns.adobe.com/AdobeSVGViewerExtensions/3.0/"
	 x="0px" y="0px" width="330px" height="68px" viewBox="0 0 330 68" style="enable-background:new 0 0 330 68;"
	 xml:space="preserve">
<style type="text/css">
	.st0{fill:none;}
	.st1{fill:#FFFFFF;}
</style>
<defs>
</defs>
<g id="XMLID_15_">
	<g id="XMLID_59_">
		<rect id="XMLID_60_" class="st0" width="330" height="68"/>
	</g>
	<g id="XMLID_20_">
		<g id="XMLID_56_">
			<path id="XMLID_57_" class="st1" d="M25,33.7l-4.9,4.4L18.2,49h-2.5l5.2-31h2.5l-2.8,16.2l4.8-4.4L38.3,18h3.4L26.9,32l10.2,17
				h-2.9L25,33.7z"/>
		</g>
		<g id="XMLID_53_">
			<path id="XMLID_54_" class="st1" d="M67.4,18l-3.5,20.5c-0.5,3.2-1.8,5.7-4,7.6s-4.8,2.8-7.9,2.7c-1.9,0-3.6-0.5-5.1-1.3
				c-1.4-0.9-2.4-2.1-3.1-3.6c-0.6-1.5-0.8-3.4-0.6-5.3L46.8,18h2.5l-3.5,20.6c-0.3,2.3,0.1,4.3,1.3,5.7s2.8,2.2,5.1,2.3
				c2.3,0.1,4.3-0.5,6-1.9c1.7-1.4,2.7-3.4,3.2-5.8L64.9,18H67.4z"/>
		</g>
		<g id="XMLID_50_">
			<path id="XMLID_51_" class="st1" d="M72.1,47h14.5l-0.4,2h-17l5.2-31H77L72.1,47z"/>
		</g>
		<g id="XMLID_47_">
			<path id="XMLID_48_" class="st1" d="M110.2,21h-10l-4.9,28h-2.5l4.9-28h-10l0.4-3h22.6L110.2,21z"/>
		</g>
		<g id="XMLID_44_">
			<path id="XMLID_45_" class="st1" d="M135.8,18l-3.5,20.5c-0.5,3.2-1.8,5.7-4,7.6c-2.2,1.8-4.8,2.8-7.9,2.7
				c-1.9,0-3.6-0.5-5.1-1.3s-2.4-2.1-3.1-3.6c-0.6-1.5-0.8-3.4-0.6-5.3l3.5-20.6h2.5l-3.5,20.6c-0.3,2.3,0.1,4.3,1.3,5.7
				c1.1,1.4,2.8,2.2,5.1,2.3c2.3,0.1,4.3-0.5,6-1.9c1.7-1.4,2.7-3.4,3.2-5.8l3.6-20.9H135.8z"/>
		</g>
		<g id="XMLID_40_">
			<path id="XMLID_41_" class="st1" d="M150.7,36h-8.5L140,49h-2.6l5.2-30.5l8.9-0.1c3,0,5.3,0.7,7,2.3c1.6,1.6,2.3,3.7,2.1,6.3
				c-0.2,2-1,3.7-2.3,5.2c-1.3,1.5-3,2.5-5.2,3.2l5.1,13.1l0,0.6h-2.7L150.7,36z M142.5,33.6l7.5,0c2.1,0,4-0.6,5.5-1.9
				c1.5-1.3,2.4-2.9,2.6-4.9c0.2-1.9-0.2-3.5-1.3-4.7c-1.1-1.2-2.7-1.8-4.8-1.8l-7.1,0L142.5,33.6z"/>
		</g>
		<g id="XMLID_36_">
			<path id="XMLID_37_" class="st1" d="M168.5,36.4L166.4,49h-2.5l5.2-30.5l9.8-0.1c2.8,0.1,5,0.8,6.5,2.4c1.5,1.6,2.2,3.7,1.9,6.3
				c-0.3,2.8-1.4,5-3.4,6.6c-2,1.6-4.6,2.5-7.8,2.5L168.5,36.4z M168.9,33.9l7.4,0c2.4,0,4.4-0.6,5.9-1.8c1.5-1.2,2.5-2.9,2.7-5
				c0.2-2-0.2-3.7-1.3-4.8c-1.1-1.2-2.7-1.8-4.7-1.9l-7.6,0L168.9,33.9z"/>
		</g>
		<g id="XMLID_33_">
			<path id="XMLID_34_" class="st1" d="M215,18l-3.5,20.5c-0.5,3.2-1.8,5.7-4,7.6s-4.8,2.8-7.9,2.7c-1.9,0-3.6-0.5-5.1-1.3
				s-2.4-2.1-3.1-3.6c-0.6-1.5-0.8-3.4-0.6-5.3l3.5-20.6h2.5l-3.5,20.6c-0.3,2.3,0.1,4.3,1.3,5.7s2.8,2.2,5.1,2.3
				c2.3,0.1,4.3-0.5,6-1.9c1.7-1.4,2.7-3.4,3.2-5.8l3.6-20.9H215z"/>
		</g>
		<g id="XMLID_30_">
			<path id="XMLID_31_" class="st1" d="M219.6,47h14.5l-0.4,2h-17l5.2-31h2.6L219.6,47z"/>
		</g>
		<g id="XMLID_27_">
			<path id="XMLID_28_" class="st1" d="M256.5,40.8c0.3-2.6-1.1-4.5-4.2-5.7l-4-1.4l-1.3-0.5c-3.9-1.7-5.7-4.1-5.5-7.4
				c0.1-1.6,0.7-3,1.7-4.2c1-1.2,2.3-2.2,4-2.8c1.7-0.7,3.4-1,5.3-0.9c1.8,0,3.4,0.5,4.8,1.2c1.4,0.8,2.5,1.9,3.2,3.3
				c0.7,1.4,1,2.7,0.8,4.7h-2.6c0.2-2-0.3-3.8-1.4-5c-1.2-1.2-2.8-1.9-4.9-2c-2.2,0-4.1,0.5-5.6,1.5c-1.6,1-2.4,2.4-2.7,4.2
				c-0.2,1.4,0.2,2.6,1.3,3.6c1,1,2.8,1.9,5.3,2.6c3.2,1,5.4,2.2,6.7,3.7c1.3,1.4,1.8,3.1,1.6,5.1c-0.2,1.7-0.7,3.1-1.7,4.3
				c-1,1.2-2.4,2.2-4,2.8c-1.7,0.6-3.5,1-5.4,0.9c-1.9,0-3.7-0.4-5.2-1.2c-1.5-0.8-2.7-1.7-3.5-3.1c-0.8-1.3-1.1-2.6-0.9-4.6h2.5
				c-0.2,2,0.4,3.7,1.7,4.9c1.3,1.2,3.2,1.8,5.5,1.8c2.3,0,4.3-0.5,5.9-1.6C255.4,44.1,256.3,42.6,256.5,40.8z"/>
		</g>
		<g id="XMLID_24_">
			<path id="XMLID_25_" class="st1" d="M282,34h-13.7l-2.2,13h15.8l-0.4,2h-18.3l5.2-31h18.2l-0.4,3h-15.6l-2,11h13.7L282,34z"/>
		</g>
		<g id="XMLID_21_">
			<path id="XMLID_22_" class="st1" d="M308.8,49h-2.4l-12.4-25.9L289.4,49h-2.6l5.2-31h2.4L307,43.9l4.5-25.9h2.5L308.8,49z"/>
		</g>
	</g>
	<g id="XMLID_18_">
		<polygon id="XMLID_19_" class="st1" points="15.2,52 14.8,54 307.9,54 308.3,52 		"/>
	</g>
	<g id="XMLID_16_">
		<polygon id="XMLID_17_" class="st1" points="21.8,13 21.4,15 314.5,15 314.8,13 		"/>
	</g>
</g>
</svg>
