<!-- Generator: Adobe Illustrator 19.2.1, SVG Export Plug-In  -->
<svg version="1.1"
	 xmlns="http://www.w3.org/2000/svg" xmlns:xlink="http://www.w3.org/1999/xlink" xmlns:a="http://ns.adobe.com/AdobeSVGViewerExtensions/3.0/"
	 x="0px" y="0px" width="52.5px" height="42.5px" viewBox="0 0 52.5 42.5" style="enable-background:new 0 0 52.5 42.5;"
	 xml:space="preserve">
<defs>
</defs>
<g>
	<path d="M51.5,21.5c-1.8-3.1-4.2-5.9-7-8.1l-5.1,4.9c1.8,1.4,3.5,3,4.8,4.9c-2.9,4-7,6.9-11.6,8.4c2.5-1.9,4.1-4.9,4.1-8.4
		c0-0.7-0.1-1.4-0.2-2.1L18.7,38.6c2.4,0.7,5,1,7.6,1c10.4,0,20-5.6,25.2-14.6l1-1.8L51.5,21.5z"/>
	<path d="M42.2,0L34,8C31.5,7.3,28.9,7,26.2,7C15.9,7,6.2,12.6,1,21.5l-1,1.8L1,25c1.8,3.2,4.3,5.9,7.1,8.2l-4.3,4.2l4.9,5L47.1,5
		L42.2,0z M8.2,23.3c2.9-4,7-6.9,11.6-8.4c-2.5,1.9-4.1,4.9-4.1,8.4c0,0.8,0.1,1.5,0.3,2.3l-2.8,2.7C11.3,26.9,9.6,25.2,8.2,23.3z"
		/>
</g>
</svg>
