<svg version="1.1"
	 xmlns="http://www.w3.org/2000/svg" xmlns:xlink="http://www.w3.org/1999/xlink" xmlns:a="http://ns.adobe.com/AdobeSVGViewerExtensions/3.0/"
	 x="0px" y="0px" width="24px" height="24px" viewBox="0 0 24 24" style="enable-background:new 0 0 24 24;" xml:space="preserve">
<path d="M18.8,10.3c-1.1,1.5-1.9,1.5-3.1,0.7c-2-1.5-2-6.1-0.3-7.9c-2.8-0.1-4.7,2-5.9,4.1
	c-0.8,1.3-2,1.5-2.6-0.1C4.7,9,3.5,12.5,4.1,15.8c0.4,2.3,2.1,4.5,4.2,5.1c-0.3-0.6-0.5-1.3-0.5-2c0-0.7,0.2-1.4,0.5-2
	c0,1,0.8,1.4,1.3,1.2c0.7-0.3,0.5-0.7,0.7-1.7s0.9-1.7,1.9-2c-0.7,2.1,0.4,2.8,1,3c0.6,0.1,1.2,0,1.3-1.3c0.7,0.7,1.2,1.7,1.2,2.8
	c0,0.8-0.3,1.6-0.7,2.2c1.9-0.2,4.3-2.4,4.8-4C20.3,15.1,20.3,12,18.8,10.3z"/>
</svg>
