<svg version="1.1"
	 xmlns="http://www.w3.org/2000/svg" xmlns:xlink="http://www.w3.org/1999/xlink" xmlns:a="http://ns.adobe.com/AdobeSVGViewerExtensions/3.0/"
	 x="0px" y="0px" width="31px" height="36.1px" viewBox="0 0 31 36.1" style="enable-background:new 0 0 31 36.1;"
	 xml:space="preserve">
<path d="M9.9,0c0.5,4.1,2,3.2,3.1,6.1c1.1,2.8,0.5,5.3-1.6,6.9C11.4,7.6,6.4,6.3,9.9,0z M27.3,31.8
	c0.2-0.2,0.4-0.4,0.6-0.7c4.8-5.8,4.3-13.9-2.4-18c0.7,1.9,0.2,4.4-1,5.9c-0.3-6.1-4.9-12.9-9.9-14.7c2,5.4,1.4,10.9-2.6,14.7
	c-2.1-2-3-5.6-2.1-7.2C7.4,13,6.6,14.5,5.6,17c-0.7,1.8-0.7,3.1-1.1,5.8c-0.4-1.6-1.9-2.3-3-2.3c1.2,2.3,0.3,4.7,1,7.8
	c-0.7,0-1.6-0.2-2.5-0.8c1.3,3.6,5.5,6.8,9.4,7.8c0.5,0.2,1,0.3,1.5,0.4c0.7,0.1,1.5,0.3,2.3,0.3c-2.2-1.4-2.5-2.8-2.5-4.2
	c0-1.5,0.6-2.4-0.1-4.3c1.6,0.5,1.9,2.2,3.3,2.2c2.6,0,3.2-3.9,2.8-7.6c2.2,2.8,3.1,5.6,2.4,9.5c1.6,0.2,3.3-0.4,4.6-2
	c-0.3,2.8-1.4,5.1-3.9,6.2c4.1-0.5,8.8-1.8,10.5-4.8C29.1,31.8,27.9,31.9,27.3,31.8z"/>
</svg>
