<svg version="1.1"
	 xmlns="http://www.w3.org/2000/svg" xmlns:xlink="http://www.w3.org/1999/xlink" xmlns:a="http://ns.adobe.com/AdobeSVGViewerExtensions/3.0/"
	 x="0px" y="0px" width="24px" height="24px" viewBox="0 0 24 24" style="enable-background:new 0 0 24 24;" xml:space="preserve">
	<g transform="translate(31,7)">
		<path d="M-14.2,9c0.8-2,0.4-3.7-0.8-5.2c-2-2.4-2.2-3.9-0.2-6c-2.5,0.2-4,1.6-4.5,4.2
			c-0.4,1.9,0.6,2.7,0.6,3.8c-0.1,1.4-0.9,1.9-1.9,1.8c-1-0.1-1.7-1.3-1.6-2.9c-2.7,3.5-0.3,6.9,2.9,7.5
			C-16.7,12.7-14.9,10.6-14.2,9z"/>
	</g>
	<g transform="translate(31,7)">
		<path id="path36_1_" class="st1" d="M-21.9,5.5c1.9-1.8,2.1-3.4,0.6-4.8c-1.3-1.3-1.4-2-0.8-3.2c-1.6,0.2-2.6,2.3-2,3.8
			C-23.4,3-21.6,2.9-21.9,5.5z"/>
	</g>
</svg>
