<svg version="1.1"
	 xmlns="http://www.w3.org/2000/svg" xmlns:xlink="http://www.w3.org/1999/xlink" xmlns:a="http://ns.adobe.com/AdobeSVGViewerExtensions/3.0/"
	 x="0px" y="0px" width="64px" height="64px" viewBox="0 0 64 64" style="enable-background:new 0 0 64 64;" xml:space="preserve">
	<path d="M15.3,64c-1,0-1.9-0.3-2.7-0.9c-1.5-1.1-2.2-2.8-1.9-4.6l2.2-13c0.4-2-0.3-4.1-1.8-5.6l-9.5-9.2
		c-1.3-1.3-1.7-3.1-1.2-4.8c0.6-1.7,2-2.9,3.8-3.2l13.1-1.9c2.1-0.3,3.8-1.6,4.7-3.4l5.9-11.9c0.8-1.6,2.4-2.6,4.2-2.6
		s3.4,1,4.2,2.6l5.9,11.9c0.9,1.9,2.7,3.1,4.7,3.4L60,22.7c1.8,0.3,3.2,1.5,3.8,3.2c0.6,1.7,0.1,3.5-1.2,4.8l-9.5,9.2
		c-1.5,1.4-2.2,3.5-1.8,5.6l2.2,13c0.3,1.8-0.4,3.5-1.9,4.6c-1.5,1.1-3.3,1.2-4.9,0.4L35,57.3c-1.8-1-4-1-5.9,0l-11.7,6.2
		C16.8,63.8,16,64,15.3,64z M32.1,6.9c-0.2,0-0.4,0-0.6,0.4l-5.9,11.9c-1.5,3-4.4,5.1-7.7,5.6L4.8,26.7c-0.4,0.1-0.5,0.3-0.5,0.5
		c0,0.1-0.1,0.4,0.2,0.7l9.5,9.2c2.4,2.4,3.5,5.8,3,9.1l-2.2,13c-0.1,0.4,0.1,0.6,0.3,0.7c0.1,0.1,0.4,0.2,0.7,0.1l11.7-6.2
		c3-1.6,6.6-1.6,9.6,0l11.7,6.2c0.3,0.2,0.6,0,0.7-0.1c0.1-0.1,0.3-0.3,0.3-0.7l-2.2-13c-0.6-3.3,0.5-6.7,3-9.1l9.5-9.2
		c0.3-0.3,0.2-0.5,0.2-0.7c0-0.1-0.2-0.4-0.5-0.5l-13.1-1.9c-3.4-0.5-6.3-2.6-7.8-5.6L32.7,7.3c0,0,0,0,0,0
		C32.6,6.9,32.3,6.9,32.1,6.9z"/>
</svg>
