<!-- Generator: Adobe Illustrator 19.0.0, SVG Export Plug-In  -->
<svg version="1.1"
	 xmlns="http://www.w3.org/2000/svg" xmlns:xlink="http://www.w3.org/1999/xlink" xmlns:a="http://ns.adobe.com/AdobeSVGViewerExtensions/3.0/"
	 x="0px" y="0px" width="64px" height="64px" viewBox="0 0 64 64" style="enable-background:new 0 0 64 64;" xml:space="preserve">
<style type="text/css">
	.st0{fill:none;}
</style>
<defs>
</defs>
<g id="XMLID_15_">
	<g id="XMLID_17_">
		<path id="XMLID_18_" d="M48.7,64c-0.8,0-1.6-0.2-2.3-0.6l-11.4-6c-1.8-1-4-1-5.8,0l-11.4,6c-1.7,0.9-3.7,0.7-5.2-0.4
			c-1.5-1.1-2.3-3-2-4.8l2.2-12.7c0.3-2-0.3-4.1-1.8-5.5l-9.3-9c-1.4-1.3-1.8-3.3-1.2-5.1c0.6-1.8,2.1-3.1,4-3.4l12.8-1.9
			c2-0.3,3.8-1.6,4.7-3.4l5.7-11.6c0.8-1.7,2.5-2.8,4.4-2.8s3.6,1.1,4.4,2.8l5.7,11.6c0.9,1.8,2.7,3.1,4.7,3.4l12.8,1.9
			c1.9,0.3,3.4,1.6,4,3.4c0.6,1.8,0.1,3.7-1.2,5.1l-9.3,9c-1.5,1.4-2.2,3.5-1.8,5.5l2.2,12.7c0.3,1.9-0.4,3.7-2,4.8
			C50.7,63.7,49.7,64,48.7,64z M32,52.7c1.6,0,3.3,0.4,4.8,1.2l11.4,6c0.5,0.2,0.8,0,1-0.1c0.1-0.1,0.5-0.4,0.4-0.9l-2.2-12.7
			c-0.6-3.3,0.5-6.7,3-9.1l9.3-9c0.4-0.4,0.3-0.8,0.2-1c-0.1-0.2-0.2-0.6-0.8-0.6l-12.8-1.9c-3.3-0.5-6.2-2.6-7.7-5.6L32.8,7.4
			c0,0,0,0,0,0c-0.2-0.5-0.7-0.5-0.8-0.5s-0.6,0.1-0.8,0.5L25.4,19c-1.5,3-4.4,5.1-7.7,5.6L4.9,26.4c-0.5,0.1-0.7,0.5-0.8,0.6
			c-0.1,0.2-0.1,0.6,0.2,1l9.3,9c2.4,2.4,3.5,5.8,3,9.1l-2.2,12.7c-0.1,0.5,0.2,0.8,0.4,0.9c0.1,0.1,0.5,0.3,1,0.1l11.4-6
			C28.7,53.1,30.4,52.7,32,52.7z"/>
	</g>
	<rect id="XMLID_16_" class="st0" width="64" height="64"/>
</g>
</svg>