<!-- Generator: Adobe Illustrator 19.0.0, SVG Export Plug-In  -->
<svg version="1.1"
	 xmlns="http://www.w3.org/2000/svg" xmlns:xlink="http://www.w3.org/1999/xlink" xmlns:a="http://ns.adobe.com/AdobeSVGViewerExtensions/3.0/"
	 x="0px" y="0px" width="74px" height="74px" viewBox="0 0 74 74" style="enable-background:new 0 0 74 74;" xml:space="preserve">
<style type="text/css">
	.st0{fill:none;}
	.st1{fill:#808080;}
</style>
<defs>
</defs>
<rect id="XMLID_29_" y="0" class="st0" width="74" height="74"/>
<g id="XMLID_22_">
	<path id="XMLID_26_" class="st1" d="M46.2,26.6c0-5.1-4.1-9.2-9.2-9.2c-5.1,0-9.2,4.1-9.2,9.2s4.1,9.2,9.2,9.2
		C42.1,35.8,46.2,31.7,46.2,26.6z M32.4,26.6c0-2.5,2.1-4.6,4.6-4.6c2.5,0,4.6,2.1,4.6,4.6s-2.1,4.6-4.6,4.6
		C34.4,31.2,32.4,29.1,32.4,26.6z"/>
	<path id="XMLID_23_" class="st1" d="M36.9,74c0.7,0,1.3-0.3,1.7-0.8c1-1.2,25-28.5,24.9-46.6C63.5,11.9,51.6,0,37,0
		C22.3,0,10.4,11.9,10.4,26.6c0,18,23.8,45.4,24.8,46.6C35.6,73.7,36.2,73.9,36.9,74z M37,4.6c12.1,0,21.9,9.9,22,22
		c0.1,13.7-16.5,34.8-22,41.4C31.5,61.4,15,40.3,15,26.6C15,14.5,24.9,4.6,37,4.6z"/>
</g>
</svg>
