<!-- Generator: Adobe Illustrator 19.0.0, SVG Export Plug-In  -->
<svg version="1.1"
	 xmlns="http://www.w3.org/2000/svg" xmlns:xlink="http://www.w3.org/1999/xlink" xmlns:a="http://ns.adobe.com/AdobeSVGViewerExtensions/3.0/"
	 x="0px" y="0px" width="74.1px" height="74.1px" viewBox="0 0 74.1 74.1" style="enable-background:new 0 0 74.1 74.1;"
	 xml:space="preserve">
<style type="text/css">
	.st0{fill:none;}
	.st1{fill:#808080;}
</style>
<defs>
</defs>
<rect id="XMLID_31_" x="0.1" y="0.1" class="st0" width="74" height="74"/>
<g id="XMLID_23_">
	<path id="XMLID_28_" class="st1" d="M37,0c-9.9,0-19.2,3.9-26.2,10.9C3.9,17.8,0,27.2,0,37s3.9,19.2,10.9,26.2
		c7,7,16.3,10.9,26.2,10.9s19.2-3.9,26.2-10.9c7-7,10.9-16.3,10.9-26.2s-3.9-19.2-10.9-26.2C56.2,3.9,46.9,0,37,0z M60,60
		c-6.1,6.1-14.3,9.5-22.9,9.5c-8.7,0-16.8-3.4-22.9-9.5C8,53.8,4.6,45.7,4.6,37S8,20.3,14.1,14.1C20.3,8,28.4,4.6,37,4.6
		c8.7,0,16.8,3.4,22.9,9.5c6.1,6.1,9.5,14.3,9.5,22.9S66.1,53.8,60,60z"/>
	<path id="XMLID_27_" class="st1" d="M54.2,41.9l-14.8-6.3V11.6c0-1.3-1-2.3-2.3-2.3s-2.3,1-2.3,2.3V37c0,0.9,0.6,1.8,1.4,2.1
		l16.2,6.9c0.3,0.1,0.6,0.2,0.9,0.2c0.9,0,1.8-0.5,2.1-1.4C55.9,43.7,55.3,42.4,54.2,41.9z"/>
	<path id="XMLID_26_" class="st1" d="M13.9,34.7h-2.3c-1.3,0-2.3,1-2.3,2.3s1,2.3,2.3,2.3h2.3c1.3,0,2.3-1,2.3-2.3
		S15.2,34.7,13.9,34.7z"/>
	<path id="XMLID_25_" class="st1" d="M57.9,37c0,1.3,1,2.3,2.3,2.3h2.3c1.3,0,2.3-1,2.3-2.3s-1-2.3-2.3-2.3h-2.3
		C58.9,34.7,57.9,35.8,57.9,37z"/>
	<path id="XMLID_24_" class="st1" d="M37,57.9c-1.3,0-2.3,1-2.3,2.3v2.3c0,1.3,1,2.3,2.3,2.3s2.3-1,2.3-2.3v-2.3
		C39.4,58.9,38.3,57.9,37,57.9z"/>
</g>
</svg>
